# xmcd
#
# Track frame offsets:
#	150
#	22504
#	53655
#	73650
#	90874
#	107865
#	139203
#	157738
#	174253
#	194590
#	209233
#	229453
#	253198
#	271862
#
# Disc length: 3815 seconds
#
# Revision: 1
# Processed by: cddbd v1.5.2PL0 Copyright (c) Steve Scherf et al.
# Submitted via: audiograbber 1.83.01
#
DISCID=be0ee50e
DTITLE=Various Artist - Blue Rose Christmas Party 2007 CD1
DYEAR=2008
DGENRE=
TTITLE0=Hank Shizzoe - Headline
TTITLE1=Hank Shizzoe - The Farmer's Song
TTITLE2=Ad Vanderveen - Start A New Life
TTITLE3=Ad Vanderveen - Still Now
TTITLE4=Markus Rill - Gotta Keep My Hands Off
TTITLE5=Markus Rill - Sarah Stein
TTITLE6=Joseph Parsons - Heaven's Above
TTITLE7=Joseph Parsons and Todd Thibaud - Good Or Bad
TTITLE8=Todd Thibaud - A Stone I Can't Roll
TTITLE9=Todd Thibaud and Joseph Parsons - Blue Skies Back
TTITLE10=Chris Cacavas - Who's Your Whore ?
TTITLE11=Chris Cacavas - I Bow Down
TTITLE12=Julian Dawson - Uneasy Rider
TTITLE13=Julian Dawson - Deep Rain
EXTD=
EXTT0=
EXTT1=
EXTT2=
EXTT3=
EXTT4=
EXTT5=
EXTT6=
EXTT7=
EXTT8=
EXTT9=
EXTT10=
EXTT11=
EXTT12=
EXTT13=
PLAYORDER=
